<svg id="Layer_1" data-name="Layer 1" xmlns="http://www.w3.org/2000/svg" viewBox="0 0 256 256"><defs><style>.cls-1{fill:#fff;}</style></defs><g id="Artwork_334" data-name="Artwork 334"><path class="cls-1" d="M210.05,47.27A191.56,191.56,0,0,0,161.46,32a141,141,0,0,0-6.22,12.92,178.64,178.64,0,0,0-53.84,0A139,139,0,0,0,95.1,32,191.06,191.06,0,0,0,46.48,47.3C15.73,93.77,7.4,139.07,11.57,183.74a194.06,194.06,0,0,0,59.58,30.53,147.1,147.1,0,0,0,12.76-21,124.79,124.79,0,0,1-20.09-9.78c1.68-1.25,3.33-2.55,4.92-3.89,38.75,18.12,80.85,18.12,119.13,0q2.43,2,4.93,3.89a125.27,125.27,0,0,1-20.13,9.8,146.39,146.39,0,0,0,12.76,21,193.65,193.65,0,0,0,59.62-30.55C249.94,132,236.7,87.07,210.05,47.27Zm-120.86,109C77.56,156.27,68,145.41,68,132.19s9.34-24.1,21.17-24.1,21.37,10.86,21.17,24.1C110.38,145.41,101,156.27,89.19,156.27Zm78.24,0c-11.63,0-21.17-10.86-21.17-24.08s9.33-24.1,21.17-24.1S188.8,119,188.6,132.19C188.6,145.41,179.26,156.27,167.43,156.27Z"/></g></svg>