<svg id="Layer_1" data-name="Layer 1" xmlns="http://www.w3.org/2000/svg" viewBox="0 0 256 256"><defs><style>.cls-1{fill:#fff;}</style></defs><g id="Artwork_330" data-name="Artwork 330"><path class="cls-1" d="M100.85,152.44a11.72,11.72,0,1,1,11.72-11.72A11.69,11.69,0,0,1,100.85,152.44Z"/><path class="cls-1" d="M155.13,167.77a3.27,3.27,0,0,1,0,4.33c-8.11,8.12-23.62,8.66-27.95,8.66-4.69,0-20-.72-27.95-8.66a3.06,3.06,0,0,1,4.33-4.33c5.23,5.23,16,6.86,23.62,6.86,7.76,0,18.76-1.81,23.63-6.86A2.94,2.94,0,0,1,155.13,167.77Z"/><circle class="cls-1" cx="152.97" cy="140.9" r="11.72"/><path class="cls-1" d="M127,15.56A113.44,113.44,0,1,0,240.44,129,113.44,113.44,0,0,0,127,15.56Zm65.65,128.59a47.62,47.62,0,0,1,.36,5c0,25.61-29.58,46.17-66.19,46.17S60.63,174.63,60.63,149.2a23,23,0,0,1,.36-5,16.31,16.31,0,0,1-9.73-15,16.54,16.54,0,0,1,16.59-16.59,16.34,16.34,0,0,1,11.54,4.69c11.54-8.3,27.23-13.53,44.9-14.07l8.48-39.49a2.6,2.6,0,0,1,1.26-2,2.82,2.82,0,0,1,2.17-.36l27.41,5.77a11.84,11.84,0,0,1,10.64-6.67,11.72,11.72,0,1,1-11.72,12.26L137.82,67.5,130.25,103c17.31.72,32.82,6,44.18,14.07a16.57,16.57,0,1,1,18.22,27.05Z"/></g></svg>