<svg id="Layer_1" data-name="Layer 1" xmlns="http://www.w3.org/2000/svg" viewBox="0 0 256 256"><defs><style>.cls-1{fill:#fff;}</style></defs><g id="Artwork_332" data-name="Artwork 332"><path class="cls-1" d="M245,127.93a116.91,116.91,0,0,1-98.72,115.43V161.75h27.24l5.21-33.82H146.28V106a24.54,24.54,0,0,1,.23-3.44c.89-6.65,4.59-12.6,13.29-14.33a27.6,27.6,0,0,1,5.54-.52H180.1V59a180.49,180.49,0,0,0-26.23-2.28,57.11,57.11,0,0,0-11.81,1.18c-15.86,3.34-27,13.77-30.84,30.33a55,55,0,0,0-1,6,66.16,66.16,0,0,0-.45,7.87v25.81H80.47v33.82h29.25v81.61a116.85,116.85,0,0,1,4.9-231.53C185.24,4,245,59,245,127.93Z"/></g></svg>