<svg id="Layer_1" data-name="Layer 1" xmlns="http://www.w3.org/2000/svg" viewBox="0 0 256 256"><defs><style>.cls-1{fill:#fff;}</style></defs><g id="Logo"><g id="Logo-2" data-name="Logo"><g id="white_background" data-name="white background"><path class="cls-1" d="M220.11,85.49c.14,2.05.14,4.11.14,6.19,0,63.26-48.16,136.23-136.23,136.23v0A135.52,135.52,0,0,1,10.63,206.4a95.86,95.86,0,0,0,70.86-19.84,47.94,47.94,0,0,1-44.73-33.25,47.68,47.68,0,0,0,21.61-.82A47.89,47.89,0,0,1,20,105.56V105a47.52,47.52,0,0,0,21.73,6A47.93,47.93,0,0,1,26.88,47a135.88,135.88,0,0,0,98.68,50,47.92,47.92,0,0,1,81.59-43.67,95.79,95.79,0,0,0,30.4-11.62,48,48,0,0,1-21,26.48A95.15,95.15,0,0,0,244,60.68,97.18,97.18,0,0,1,220.11,85.49Z"/></g></g></g></svg>