<svg id="Layer_1" data-name="Layer 1" xmlns="http://www.w3.org/2000/svg" viewBox="0 0 256 256"><defs><style>.cls-1{fill:#fff;}</style></defs><g id="Artwork_329" data-name="Artwork 329"><path class="cls-1" d="M240.12,71.78a29.34,29.34,0,0,0-20.73-20.73c-18.29-4.9-91.6-4.9-91.6-4.9s-73.31,0-91.59,4.9A29.31,29.31,0,0,0,15.48,71.78c-4.9,18.27-4.9,56.42-4.9,56.42s0,38.15,4.9,56.43A29.35,29.35,0,0,0,36.2,205.35c18.28,4.9,91.59,4.9,91.59,4.9s73.31,0,91.6-4.9a29.38,29.38,0,0,0,20.73-20.72C245,166.35,245,128.2,245,128.2S245,90.05,240.12,71.78ZM104.19,163.36V93l60.92,35.16Z"/><polygon class="cls-1" points="165.11 128.2 104.19 163.38 104.19 163.36 165.11 128.2"/></g></svg>