<svg id="Layer_1" data-name="Layer 1" xmlns="http://www.w3.org/2000/svg" viewBox="0 0 256 256"><defs><style>.cls-1{fill:#fff;}</style></defs><g id="Artwork_333" data-name="Artwork 333"><path class="cls-1" d="M128.31,32.16c31.36,0,35.07.12,47.45.68,11.45.53,17.67,2.44,21.81,4a36.37,36.37,0,0,1,13.5,8.78,36.35,36.35,0,0,1,8.79,13.51c1.6,4.13,3.52,10.35,4,21.8.57,12.39.69,16.1.69,47.46s-.12,35.07-.69,47.45c-.52,11.45-2.44,17.67-4,21.81A38.91,38.91,0,0,1,197.57,220c-4.14,1.61-10.36,3.53-21.81,4.05-12.38.56-16.09.68-47.45.68s-35.07-.12-47.46-.68c-11.45-.52-17.66-2.44-21.8-4.05A38.91,38.91,0,0,1,36.76,197.7c-1.61-4.14-3.52-10.36-4-21.81-.57-12.38-.69-16.1-.69-47.45s.12-35.07.69-47.46c.52-11.45,2.43-17.67,4-21.8a36.35,36.35,0,0,1,8.79-13.51,36.29,36.29,0,0,1,13.5-8.78c4.14-1.61,10.35-3.52,21.8-4,12.39-.56,16.1-.68,47.46-.68m0-21.16c-31.9,0-35.89.13-48.42.71s-21,2.55-28.51,5.46a57.55,57.55,0,0,0-20.8,13.54A57.55,57.55,0,0,0,17,51.51C14.13,59,12.15,67.52,11.58,80s-.71,16.52-.71,48.42.14,35.89.71,48.41,2.55,21,5.46,28.51a57.55,57.55,0,0,0,13.54,20.8,57.58,57.58,0,0,0,20.8,13.55c7.47,2.9,16,4.89,28.51,5.46s16.52.7,48.42.7,35.89-.13,48.42-.7,21-2.56,28.5-5.46a60.1,60.1,0,0,0,34.35-34.35c2.9-7.47,4.89-16,5.46-28.51s.7-16.52.7-48.41-.13-35.9-.7-48.42-2.56-21-5.46-28.51A57.58,57.58,0,0,0,226,30.71a57.38,57.38,0,0,0-20.8-13.54c-7.47-2.91-16-4.89-28.5-5.46S160.2,11,128.31,11"/><path class="cls-1" d="M128.31,68.13a60.31,60.31,0,1,0,60.3,60.31,60.31,60.31,0,0,0-60.3-60.31m0,99.45a39.15,39.15,0,1,1,39.14-39.14,39.14,39.14,0,0,1-39.14,39.14"/><path class="cls-1" d="M205.09,65.75A14.1,14.1,0,1,1,191,51.66a14.09,14.09,0,0,1,14.09,14.09"/></g></svg>